<svg width="118" height="118" viewBox="0 0 118 118" fill="none" xmlns="http://www.w3.org/2000/svg">
<path d="M12.2917 59C12.2917 36.9815 12.2917 25.9722 19.132 19.1319C25.9723 12.2917 36.9816 12.2917 59.0001 12.2917C81.0184 12.2917 92.0278 12.2917 98.8683 19.1319C105.708 25.9722 105.708 36.9815 105.708 59C105.708 81.0183 105.708 92.0277 98.8683 98.8678C92.0278 105.708 81.0184 105.708 59.0001 105.708C36.9816 105.708 25.9723 105.708 19.132 98.8678C12.2917 92.0277 12.2917 81.0183 12.2917 59Z" stroke="white" stroke-width="8.5"/>
<path d="M34.5991 59.1362H68.8958M68.8958 59.1362C68.8958 61.9412 58.2994 71.3659 58.2994 71.3659M68.8958 59.1362C68.8958 56.2585 58.2994 47.0198 58.2994 47.0198M83.7657 39.3105V78.6441" stroke="white" stroke-width="8.5" stroke-linecap="round"/>
</svg>
